<svg id="account-lined" xmlns="http://www.w3.org/2000/svg" width="24" height="24" viewBox="0 0 24 24">
  <path id="Path_1781" data-name="Path 1781" d="M0,0H24V24H0Z" fill="rgba(0,0,0,0)"/>
  <g id="user_1_" data-name="user (1)" transform="translate(4.09 3)">
    <g id="Group_73360" data-name="Group 73360" transform="translate(3.164)">
      <g id="Group_73359" data-name="Group 73359">
        <g id="Path_106975" data-name="Path 106975" transform="translate(-121)" fill="none">
          <path d="M125.746,0a4.746,4.746,0,1,0,4.746,4.746A4.751,4.751,0,0,0,125.746,0Z" stroke="none"/>
          <path d="M 125.7460708618164 1.000001907348633 C 123.6804809570312 1.000001907348633 122 2.680492401123047 122 4.746092319488525 C 122 6.811692237854004 123.6804809570312 8.492182731628418 125.7460708618164 8.492182731628418 C 127.8116836547852 8.492182731628418 129.4921875 6.811692237854004 129.4921875 4.746092319488525 C 129.4921875 2.680492401123047 127.8116836547852 1.000001907348633 125.7460708618164 1.000001907348633 M 125.7460708618164 1.9073486328125e-06 C 128.3630828857422 1.9073486328125e-06 130.4921875 2.129092216491699 130.4921875 4.746092319488525 C 130.4921875 7.363082408905029 128.3630828857422 9.492182731628418 125.7460708618164 9.492182731628418 C 123.1291046142578 9.492182731628418 121 7.363082408905029 121 4.746092319488525 C 121 2.129092216491699 123.1291046142578 1.9073486328125e-06 125.7460708618164 1.9073486328125e-06 Z" stroke="none" fill="#999"/>
        </g>
      </g>
    </g>
    <g id="Group_73362" data-name="Group 73362" transform="translate(0 10.547)">
      <g id="Group_73361" data-name="Group 73361">
        <g id="Path_106976" data-name="Path 106976" transform="translate(-31 -300)" fill="none">
          <path d="M44.815,302.046A6.766,6.766,0,0,0,39.965,300H37.855a6.766,6.766,0,0,0-4.85,2.046A6.917,6.917,0,0,0,31,306.926a.527.527,0,0,0,.527.527H46.293a.527.527,0,0,0,.527-.527A6.917,6.917,0,0,0,44.815,302.046Z" stroke="none"/>
          <path d="M 37.85547637939453 301 C 36.29703521728516 301 34.82749557495117 301.6206665039062 33.71755599975586 302.7476806640625 C 32.72185516357422 303.7586364746094 32.1282958984375 305.0600891113281 32.0185432434082 306.4531555175781 L 45.8017692565918 306.4531555175781 C 45.6920166015625 305.0600891113281 45.09845352172852 303.7586364746094 44.10273742675781 302.7476501464844 C 42.99281692504883 301.6206665039062 41.52328491210938 301 39.96484756469727 301 L 37.85547637939453 301 M 37.85547637939453 300 L 39.96484756469727 300 C 41.79328536987305 300 43.51583480834961 300.7265930175781 44.81521606445312 302.0459594726562 C 46.10822677612305 303.3587951660156 46.82031631469727 305.0918273925781 46.82031631469727 306.9258117675781 C 46.82031631469727 307.217041015625 46.58420562744141 307.4531555175781 46.29296875 307.4531555175781 L 31.52734756469727 307.4531555175781 C 31.23610687255859 307.4531555175781 30.99999618530273 307.217041015625 30.99999618530273 306.9258117675781 C 30.99999618530273 305.0918273925781 31.71208572387695 303.3587951660156 33.00509643554688 302.0459594726562 C 34.30448532104492 300.7265930175781 36.02706527709961 300 37.85547637939453 300 Z" stroke="none" fill="#999"/>
        </g>
      </g>
    </g>
  </g>
</svg>
