<svg xmlns="http://www.w3.org/2000/svg" width="99.774" height="81.808" viewBox="0 0 99.774 81.808">
  <g id="Group_152064" data-name="Group 152064" transform="translate(9892.211 16440.729)">
    <g id="Group_152060" data-name="Group 152060" transform="translate(-9892.211 -16426.645)">
      <path id="Path_199078" data-name="Path 199078" d="M305.273,251.614l-11.343-7.352a6.715,6.715,0,0,0-10.367,5.635v14.7a6.715,6.715,0,0,0,10.367,5.636l11.343-7.353a6.716,6.716,0,0,0,0-11.271Zm-3.362,5.187a.535.535,0,0,1,0,.9l-11.344,7.353a.534.534,0,0,1-.824-.449V249.9a.534.534,0,0,1,.824-.449Z" transform="translate(-252.029 -215.688)" fill="#fff" fill-rule="evenodd"/>
      <path id="Path_199079" data-name="Path 199079" d="M191.792,99.862A12.36,12.36,0,0,0,179.431,87.5H117.622A12.36,12.36,0,0,0,105.26,99.862v43a12.36,12.36,0,0,0,12.362,12.362h61.809a12.36,12.36,0,0,0,12.362-12.362Zm-6.181,0v43a6.183,6.183,0,0,1-6.181,6.181H117.622a6.18,6.18,0,0,1-6.181-6.181v-43a6.18,6.18,0,0,1,6.181-6.181h61.809a6.183,6.183,0,0,1,6.181,6.181Z" transform="translate(-105.214 -87.498)" fill="#fff" fill-rule="evenodd"/>
      <path id="Path_199080" data-name="Path 199080" d="M108.09,181.181H186.9a3.09,3.09,0,0,0,0-6.181H108.09a3.09,3.09,0,1,0,0,6.181Z" transform="translate(-105 -159.546)" fill="#fff" fill-rule="evenodd"/>
      <path id="Path_199081" data-name="Path 199081" d="M178.454,107.628l9.271-15.452a3.09,3.09,0,1,0-5.3-3.18l-9.271,15.452a3.09,3.09,0,1,0,5.3,3.18Z" transform="translate(-160.756 -87.494)" fill="#fff" fill-rule="evenodd"/>
      <path id="Path_199082" data-name="Path 199082" d="M311.984,107.628l9.271-15.452a3.09,3.09,0,1,0-5.3-3.18l-9.271,15.452a3.09,3.09,0,1,0,5.3,3.18Z" transform="translate(-270.704 -87.494)" fill="#fff" fill-rule="evenodd"/>
      <path id="Path_199083" data-name="Path 199083" d="M451.987,110.978l8.646-14.408a3.091,3.091,0,1,0-5.3-3.18L446.688,107.8a3.09,3.09,0,1,0,5.3,3.18Z" transform="translate(-385.985 -91.113)" fill="#fff" fill-rule="evenodd"/>
    </g>
    <g id="Group_152063" data-name="Group 152063" transform="translate(-9838.022 -16440.729)">
      <circle id="Ellipse_2346" data-name="Ellipse 2346" cx="18.079" cy="18.079" r="18.079" transform="translate(4.713 4.964)" fill="#fff"/>
      <g id="check_circle_black_24dp">
        <path id="Path_199084" data-name="Path 199084" d="M0,0H45.585V45.585H0Z" fill="none"/>
        <g id="Group_152067" data-name="Group 152067" transform="translate(9355.467 16453.244)">
          <g id="Ellipse_2346-2" data-name="Ellipse 2346" transform="translate(-9353.031 -16450.809)" fill="#5ac147" stroke="#fff" stroke-width="5">
            <circle cx="20.357" cy="20.357" r="20.357" stroke="none"/>
            <circle cx="20.357" cy="20.357" r="17.857" fill="none"/>
          </g>
          <path id="Path_199086" data-name="Path 199086" d="M-9285.715-16434.93l4.551,4.355,8.813-8.811" transform="translate(-53.641 4.527)" fill="none" stroke="#fff" stroke-linecap="round" stroke-linejoin="round" stroke-width="5"/>
        </g>
      </g>
    </g>
  </g>
</svg>
