<svg xmlns="http://www.w3.org/2000/svg" width="38" height="38" viewBox="0 0 38 38">
  <g id="Group_150922" data-name="Group 150922" transform="translate(-61 -1064)">
    <path id="Path_107236" data-name="Path 107236" d="M0,0H38V38H0Z" transform="translate(61 1064)" fill="none"/>
    <path id="Path_198459" data-name="Path 198459" d="M6.947,21.124v5.065a3.679,3.679,0,0,0,1.736,3.172l8.348,4.921a3.1,3.1,0,0,0,3.206,0l8.348-4.921a3.679,3.679,0,0,0,1.736-3.172V21.124L20.237,27.072a3.1,3.1,0,0,1-3.206,0ZM17.031,3.713,2.957,12a1.888,1.888,0,0,0,0,3.172l14.075,8.291a3.1,3.1,0,0,0,3.206,0l13.424-7.913V26.207a1.675,1.675,0,1,0,3.339,0V14.653a1.84,1.84,0,0,0-.868-1.586L20.237,3.713a3.186,3.186,0,0,0-3.206,0Z" transform="translate(60.454 1063.997)" fill="#fff" opacity="0.8"/>
  </g>
</svg>
