<svg xmlns="http://www.w3.org/2000/svg" width="38" height="38.004" viewBox="0 0 38 38.004">
  <g id="Group_151964" data-name="Group 151964" transform="translate(-269 -1050.996)">
    <rect id="Rectangle_25260" data-name="Rectangle 25260" width="38" height="38" rx="12" transform="translate(269 1050.996)" fill="none"/>
    <g id="menu_book_black_24dp" transform="translate(269 1051)">
      <g id="Group_150926" data-name="Group 150926">
        <rect id="Rectangle_24954" data-name="Rectangle 24954" width="38" height="38" rx="12" fill="none"/>
        <rect id="Rectangle_24955" data-name="Rectangle 24955" width="38" height="38" rx="12" fill="none"/>
      </g>
      <g id="Group_150927" data-name="Group 150927" transform="translate(1.592 7.166)">
        <path id="Path_198461" data-name="Path 198461" d="M27.274,4.5c-3.105,0-6.449.637-8.758,2.389C16.207,5.137,12.863,4.5,9.758,4.5A17.228,17.228,0,0,0,2.943,5.758,3.244,3.244,0,0,0,1,8.7V26.666a3.177,3.177,0,0,0,3.949,3.089,19.666,19.666,0,0,1,4.809-.573,16.838,16.838,0,0,1,7.261,1.465,3.273,3.273,0,0,0,2.978,0,16.609,16.609,0,0,1,7.261-1.465,19.666,19.666,0,0,1,4.809.573,3.162,3.162,0,0,0,3.949-3.089V8.7a3.244,3.244,0,0,0-1.943-2.946A17.1,17.1,0,0,0,27.274,4.5Zm5.573,20.271a1.608,1.608,0,0,1-1.911,1.561,20.077,20.077,0,0,0-3.662-.318A19.18,19.18,0,0,0,18.516,28.4V10.073a19.18,19.18,0,0,1,8.758-2.389,20.2,20.2,0,0,1,4.3.446,1.615,1.615,0,0,1,1.274,1.561Z" transform="translate(-1 -4.5)" fill="#fff" opacity="0.8"/>
        <path id="Path_198462" data-name="Path 198462" d="M14.423,12.195a1.192,1.192,0,0,1-.366-2.325,21.183,21.183,0,0,1,8.535-.717,1.194,1.194,0,1,1-.271,2.373,18.822,18.822,0,0,0-7.532.621A3.31,3.31,0,0,1,14.423,12.195Z" transform="translate(6.246 -1.828)" fill="#fff" opacity="0.8"/>
        <path id="Path_198463" data-name="Path 198463" d="M14.423,14.855a1.192,1.192,0,0,1-.366-2.325,21.158,21.158,0,0,1,8.535-.717,1.194,1.194,0,0,1-.271,2.373,18.822,18.822,0,0,0-7.532.621A1.543,1.543,0,0,1,14.423,14.855Z" transform="translate(6.246 -0.253)" fill="#fff" opacity="0.8"/>
        <path id="Path_198464" data-name="Path 198464" d="M14.423,17.515a1.192,1.192,0,0,1-.366-2.325,21.158,21.158,0,0,1,8.535-.717,1.194,1.194,0,1,1-.271,2.373,18.822,18.822,0,0,0-7.532.621A1.543,1.543,0,0,1,14.423,17.515Z" transform="translate(6.246 1.323)" fill="#fff" opacity="0.8"/>
      </g>
    </g>
  </g>
</svg>
