<svg xmlns="http://www.w3.org/2000/svg" width="24" height="24" viewBox="0 0 24 24">
  <g id="icon-taxation" transform="translate(-36 -263)">
    <rect id="Rectangle_25288" data-name="Rectangle 25288" width="24" height="24" transform="translate(36 263)" fill="none"/>
    <path id="shield" d="M11.226,2.077a.95.95,0,0,1,.748,0l6.074,2.6A1.9,1.9,0,0,1,19.2,6.426v6.516a6.65,6.65,0,0,1-3.351,5.774l-3.778,2.159a.95.95,0,0,1-.943,0L7.351,18.716A6.65,6.65,0,0,1,4,12.942V6.426A1.9,1.9,0,0,1,5.152,4.68Zm3.9,8.195a.95.95,0,0,0-1.343-1.344l-2.792,2.792a.475.475,0,0,1-.672,0l-.892-.892a.95.95,0,1,0-1.344,1.343l1.9,1.9a.95.95,0,0,0,1.343,0Z" transform="translate(36.4 263.5)" fill="#1876d3" fill-rule="evenodd"/>
  </g>
</svg>
