<svg xmlns="http://www.w3.org/2000/svg" width="24" height="24" viewBox="0 0 24 24">
  <g id="icon-taxation" transform="translate(-36 -263)">
    <rect id="Rectangle_25288" data-name="Rectangle 25288" width="24" height="24" transform="translate(36 263)" fill="none"/>
    <g id="world-map" transform="translate(39 266)">
      <g id="Group_151973" data-name="Group 151973" transform="translate(0.001)">
        <path id="Path_199074" data-name="Path 199074" d="M9,0a9,9,0,1,0,9,9A9,9,0,0,0,9,0ZM7,9.91l-.663,2.873a.785.785,0,0,1-1.478.146L3.364,9.62l1-2.923a.527.527,0,0,0-.267-.643l-2-.982A7.918,7.918,0,0,1,5.424,1.9v1.31a.527.527,0,0,0,.418.516l2.7.572a.98.98,0,0,1,.749.715l.255.974a.991.991,0,0,1-.182.864L7.1,9.7A.527.527,0,0,0,7,9.91Zm1.421,7.014.3-.639a.507.507,0,0,1,.229-.242c.117-.07.294-.151.586-.3a.549.549,0,0,1,.693.153h0l.631.828A8.009,8.009,0,0,1,8.417,16.924Zm5.7-1.849-.691-.448-.31-2.872a1.172,1.172,0,0,1,.206-.8L14.883,8.74a.527.527,0,0,0,.1-.3V6.4l1.01-1.185a7.949,7.949,0,0,1-1.868,9.858Z" transform="translate(-0.001)" fill="#fff" opacity="0.8"/>
      </g>
    </g>
  </g>
</svg>
