<svg xmlns="http://www.w3.org/2000/svg" width="60" height="60" viewBox="0 0 60 60">
  <g id="icon-taxation" transform="translate(-36 -263)">
    <rect id="Rectangle_25288" data-name="Rectangle 25288" width="60" height="60" transform="translate(36 263)" fill="none"/>
    <g id="world-map" transform="translate(43.518 270.515)">
      <g id="Group_151973" data-name="Group 151973" transform="translate(0)">
        <path id="Path_199074" data-name="Path 199074" d="M22.546,0A22.545,22.545,0,1,0,45.092,22.545,22.537,22.537,0,0,0,22.546,0ZM17.524,24.825l-1.661,7.2a1.966,1.966,0,0,1-3.7.365L8.425,24.1l2.5-7.323a1.321,1.321,0,0,0-.668-1.612L5.243,12.7a19.835,19.835,0,0,1,8.343-7.935V8.049a1.321,1.321,0,0,0,1.047,1.292L21.4,10.775a2.456,2.456,0,0,1,1.877,1.79l.639,2.441a2.482,2.482,0,0,1-.457,2.164L17.778,24.3A1.321,1.321,0,0,0,17.524,24.825ZM21.083,42.4l.758-1.6a1.27,1.27,0,0,1,.575-.606c.293-.175.737-.379,1.467-.745a1.375,1.375,0,0,1,1.736.382h0L27.2,41.9A20.063,20.063,0,0,1,21.083,42.4Zm14.291-4.633L33.643,36.64l-.776-7.2a2.937,2.937,0,0,1,.517-2l3.9-5.549a1.321,1.321,0,0,0,.24-.759v-5.1l2.53-2.969a19.914,19.914,0,0,1-4.679,24.7Z" transform="translate(-0.001)" fill="#999" opacity="0.08"/>
      </g>
    </g>
  </g>
</svg>
