<svg xmlns="http://www.w3.org/2000/svg" width="24" height="24" viewBox="0 0 24 24">
  <g id="learn-lined" transform="translate(-128.51 -777.609)">
    <rect id="Rectangle_22393" data-name="Rectangle 22393" width="24" height="24" transform="translate(128.51 777.61)" fill="none"/>
    <g id="coffee-cup" transform="translate(129.591 748.055)">
      <path id="Path_107397" data-name="Path 107397" d="M130.545,603.687H143.77l.484.264.153.685-.153,1.7-.484,2.249-.953,1.637-1.049,1.256-.842.748-.861.523h-5.892l-1.362-.71-1.3-1.405-.97-1.566-.6-1.411-.252-1.68v-1.448l.252-.581Z" transform="translate(-126.58 -563.944)" fill="#1876d3"/>
      <g id="Group_76180" data-name="Group 76180" transform="translate(2.729 39.28)">
        <g id="Group_76179" data-name="Group 76179" transform="translate(0 0)">
          <path id="Path_107391" data-name="Path 107391" d="M78.094,202.654H65.353a1.367,1.367,0,0,0-1.365,1.365v.91a8.624,8.624,0,0,0,4.68,7.685.455.455,0,1,0,.418-.809,7.716,7.716,0,0,1-4.188-6.876v-.91a.455.455,0,0,1,.455-.455H78.094a.455.455,0,0,1,.455.455v.91A7.713,7.713,0,0,1,74.36,211.8a.455.455,0,0,0,.209.86.449.449,0,0,0,.208-.051,8.62,8.62,0,0,0,4.681-7.684v-.91A1.367,1.367,0,0,0,78.094,202.654Z" transform="translate(-63.988 -202.654)" fill="#1876d3"/>
        </g>
      </g>
      <g id="Group_76182" data-name="Group 76182" transform="translate(0 48.38)">
        <g id="Group_76181" data-name="Group 76181" transform="translate(0 0)">
          <path id="Path_107392" data-name="Path 107392" d="M20.9,416.247a.456.456,0,0,0-.42-.281H.455a.456.456,0,0,0-.322.777l1.02,1.021a3.166,3.166,0,0,0,2.252.933H17.524a3.171,3.171,0,0,0,2.254-.933l1.02-1.021A.454.454,0,0,0,20.9,416.247Zm-1.763.874a2.262,2.262,0,0,1-1.609.666H3.406a2.262,2.262,0,0,1-1.609-.666l-.244-.244H19.378Z" transform="translate(0 -415.966)" fill="#1876d3"/>
        </g>
      </g>
      <g id="Group_76184" data-name="Group 76184" transform="translate(15.147 41.098)">
        <g id="Group_76183" data-name="Group 76183">
          <path id="Path_107393" data-name="Path 107393" d="M360.906,245.6c-1.226-.788-3.184.067-3.4.167a.456.456,0,0,0,.378.829c.439-.2,1.846-.672,2.534-.228a1.293,1.293,0,0,1,.462,1.179c0,1.822-3.675,2.923-5.094,3.194l-.322.064a.455.455,0,0,0,.087.9.421.421,0,0,0,.088-.009l.319-.063c.238-.046,5.831-1.142,5.831-4.087A2.146,2.146,0,0,0,360.906,245.6Z" transform="translate(-355.093 -245.272)" fill="#1876d3"/>
        </g>
      </g>
      <g id="Group_76186" data-name="Group 76186" transform="translate(12.74 32.001)">
        <g id="Group_76185" data-name="Group 76185" transform="translate(0 0)">
          <path id="Path_107394" data-name="Path 107394" d="M299.933,35.469a2.726,2.726,0,0,0,0-3.3.455.455,0,0,0-.711.569,1.836,1.836,0,0,1,0,2.161,2.724,2.724,0,0,0,0,3.3.455.455,0,1,0,.711-.569A1.833,1.833,0,0,1,299.933,35.469Z" transform="translate(-298.666 -32.001)" fill="#1876d3"/>
        </g>
      </g>
      <g id="Group_76188" data-name="Group 76188" transform="translate(10.007 32.001)">
        <g id="Group_76187" data-name="Group 76187" transform="translate(0 0)">
          <path id="Path_107395" data-name="Path 107395" d="M235.864,35.478a2.724,2.724,0,0,0,0-3.3.455.455,0,0,0-.711.569,1.833,1.833,0,0,1,0,2.161,2.726,2.726,0,0,0,0,3.3.455.455,0,1,0,.711-.569A1.836,1.836,0,0,1,235.864,35.478Z" transform="translate(-234.597 -32.009)" fill="#1876d3"/>
        </g>
      </g>
      <g id="Group_76190" data-name="Group 76190" transform="translate(7.28 32.001)">
        <g id="Group_76189" data-name="Group 76189" transform="translate(0 0)">
          <path id="Path_107396" data-name="Path 107396" d="M171.933,35.49a2.726,2.726,0,0,0,0-3.3.455.455,0,0,0-.711.568,1.836,1.836,0,0,1,0,2.161,2.724,2.724,0,0,0,0,3.3.455.455,0,1,0,.711-.568A1.833,1.833,0,0,1,171.933,35.49Z" transform="translate(-170.666 -32.022)" fill="#1876d3"/>
        </g>
      </g>
    </g>
  </g>
</svg>
