<svg xmlns="http://www.w3.org/2000/svg" width="58" height="58" viewBox="0 0 58 58">
  <g id="Mutual_funds" data-name="Mutual funds" transform="translate(-107 -192)">
    <g id="icon_stock" transform="translate(107 192)" opacity="0.08">
      <rect id="Rectangle_22897" data-name="Rectangle 22897" width="58" height="58" fill="none"/>
      <path id="Path_107654" data-name="Path 107654" d="M7.932,46.867C-8.608,30.634,2.375,2.807,25.612,1.626V28.109a1.41,1.41,0,0,0,1.423,1.4h26.99a26.224,26.224,0,0,1-7.88,17.359v0a27.389,27.389,0,0,1-38.213,0ZM47.78,25.712a1.411,1.411,0,0,1-1.423-1.4V1.4A1.411,1.411,0,0,1,47.78,0h4.113a1.411,1.411,0,0,1,1.43,1.4V24.308a1.411,1.411,0,0,1-1.43,1.4Zm-8.263,0a1.418,1.418,0,0,1-1.43-1.4V7.025a1.417,1.417,0,0,1,1.43-1.4H43.63a1.411,1.411,0,0,1,1.423,1.4V24.308a1.413,1.413,0,0,1-1.423,1.4Zm-8.107,0a1.413,1.413,0,0,1-1.43-1.4V12.343a1.411,1.411,0,0,1,1.43-1.4h4.114a1.41,1.41,0,0,1,1.423,1.4V24.308a1.411,1.411,0,0,1-1.423,1.4Z" transform="translate(1.987 1.684)" fill="#999"/>
    </g>
    <g id="icon_stock-2" data-name="icon_stock" transform="translate(141 226)">
      <rect id="Rectangle_22897-2" data-name="Rectangle 22897" width="24" height="24" fill="none"/>
      <path id="Path_107654-2" data-name="Path 107654" d="M2.94,17.7A10.027,10.027,0,0,1,9.493.614v10a.527.527,0,0,0,.528.528h10A9.987,9.987,0,0,1,17.1,17.7h0a10.018,10.018,0,0,1-14.164,0ZM17.71,9.71a.528.528,0,0,1-.528-.53V.528A.528.528,0,0,1,17.71,0h1.525a.528.528,0,0,1,.53.528V9.18a.528.528,0,0,1-.53.53Zm-3.063,0a.531.531,0,0,1-.53-.53V2.653a.53.53,0,0,1,.53-.528h1.525a.528.528,0,0,1,.528.528V9.18a.528.528,0,0,1-.528.53Zm-3,0a.528.528,0,0,1-.53-.53V4.662a.528.528,0,0,1,.53-.528h1.525a.527.527,0,0,1,.528.528V9.18a.528.528,0,0,1-.528.53Z" transform="translate(1.987 1.684)" fill="#999"/>
    </g>
  </g>
</svg>
