<svg id="Portfolio" xmlns="http://www.w3.org/2000/svg" width="24" height="24" viewBox="0 0 24 24">
  <rect id="Touch_Target" data-name="Touch Target" width="24" height="24" fill="none"/>
  <g id="Group_148851" data-name="Group 148851" transform="translate(456.176 -193.704)">
    <g id="Group_148839" data-name="Group 148839">
      <g id="Group_148838" data-name="Group 148838">
        <g id="Path_198088" data-name="Path 198088" fill="none">
          <path d="M-434.891,206.494h-6.81a.54.54,0,0,0-.54.54.543.543,0,0,0,.164.387l4.8,4.795a.539.539,0,0,0,.4.172.541.541,0,0,0,.449-.239,8.611,8.611,0,0,0,2.074-5.018.466.466,0,0,0,.011-.1A.54.54,0,0,0-434.891,206.494Z" stroke="none"/>
          <path d="M -440.5896301269531 207.4940032958984 L -436.9209899902344 211.161865234375 C -436.0938720703125 210.0880432128906 -435.5750122070312 208.8344116210938 -435.40283203125 207.4940032958984 L -440.5896301269531 207.4940032958984 M -441.7009887695312 206.4940032958984 L -434.8909912109375 206.4940032958984 C -434.5920104980469 206.4940032958984 -434.3510131835938 206.7359924316406 -434.3510131835938 207.0339965820312 C -434.3510131835938 207.0659942626953 -434.3550109863281 207.0980072021484 -434.3619995117188 207.1309967041016 C -434.4989929199219 209.0429992675781 -435.2569885253906 210.781005859375 -436.4360046386719 212.1490020751953 C -436.5329895019531 212.2929992675781 -436.697998046875 212.3880004882812 -436.885009765625 212.3880004882812 C -437.0409851074219 212.3880004882812 -437.1830139160156 212.3220062255859 -437.281005859375 212.2160034179688 L -442.0769958496094 207.4210052490234 C -442.177001953125 207.3220062255859 -442.2409973144531 207.1860046386719 -442.2409973144531 207.0339965820312 C -442.2409973144531 206.7359924316406 -441.9989929199219 206.4940032958984 -441.7009887695312 206.4940032958984 Z" stroke="none" fill="#999"/>
        </g>
      </g>
    </g>
    <g id="Group_148841" data-name="Group 148841">
      <g id="Group_148840" data-name="Group 148840">
        <g id="Path_198089" data-name="Path 198089" fill="none">
          <path d="M-443.758,196.7a.541.541,0,0,0-.538.541v7.568a.54.54,0,0,0,.538.542h7.57a.542.542,0,0,0,.541-.542A8.667,8.667,0,0,0-443.758,196.7Z" stroke="none"/>
          <path d="M -443.2959899902344 197.7522430419922 L -443.2959899902344 204.3549957275391 L -436.6947631835938 204.3549957275391 C -437.1410217285156 200.9210662841797 -439.8616943359375 198.2002258300781 -443.2959899902344 197.7522430419922 M -443.7579956054688 196.7039947509766 C -439.3999938964844 196.9720001220703 -435.9150085449219 200.4570007324219 -435.6470031738281 204.8130035400391 C -435.6470031738281 205.1119995117188 -435.8900146484375 205.3549957275391 -436.18798828125 205.3549957275391 L -443.7579956054688 205.3549957275391 C -444.0549926757812 205.3549957275391 -444.2959899902344 205.1119995117188 -444.2959899902344 204.8130035400391 L -444.2959899902344 197.2449951171875 C -444.2959899902344 196.9470062255859 -444.0549926757812 196.7059936523438 -443.7579956054688 196.7039947509766 Z" stroke="none" fill="#999"/>
        </g>
      </g>
    </g>
    <g id="Group_148843" data-name="Group 148843">
      <g id="Group_148842" data-name="Group 148842">
        <g id="Path_198090" data-name="Path 198090" fill="none">
          <path d="M-439.6,211.774l-5.584-5.583a.54.54,0,0,1-.152-.378l0-7.886a.537.537,0,0,0-.538-.538A8.664,8.664,0,0,0-454,206.037a8.667,8.667,0,0,0,8.665,8.667,8.629,8.629,0,0,0,5.7-2.14.535.535,0,0,0,.191-.411A.544.544,0,0,0-439.6,211.774Z" stroke="none"/>
          <path d="M -445.3349914550781 213.7039947509766 C -443.6404113769531 213.7039947509766 -442.0006103515625 213.1442718505859 -440.6663818359375 212.118896484375 L -445.8954162597656 206.8907012939453 C -446.1776123046875 206.6025848388672 -446.3330078125 206.2198486328125 -446.3330078125 205.8132476806641 L -446.3348693847656 198.4368743896484 C -450.1124267578125 198.9270324707031 -453 202.1691436767578 -453 206.0370025634766 C -453 210.2646026611328 -449.5614929199219 213.7039947509766 -445.3349914550781 213.7039947509766 M -445.3349914550781 214.7039947509766 C -450.1199951171875 214.7039947509766 -454 210.822998046875 -454 206.0370025634766 C -454 201.4329986572266 -450.4079895019531 197.6649932861328 -445.8729858398438 197.3890075683594 C -445.5750122070312 197.3890075683594 -445.3349914550781 197.6289978027344 -445.3349914550781 197.927001953125 L -445.3330078125 205.8130035400391 C -445.3330078125 205.9589996337891 -445.2760009765625 206.093994140625 -445.1809997558594 206.1909942626953 L -439.5969848632812 211.7740020751953 C -439.5010070800781 211.8730010986328 -439.4419860839844 212.0070037841797 -439.4419860839844 212.1529998779297 C -439.4419860839844 212.3179931640625 -439.5159912109375 212.4660034179688 -439.6329956054688 212.5639953613281 C -441.1570129394531 213.8970031738281 -443.1510009765625 214.7039947509766 -445.3349914550781 214.7039947509766 Z" stroke="none" fill="#999"/>
        </g>
      </g>
    </g>
  </g>
</svg>
