<svg xmlns="http://www.w3.org/2000/svg" width="58" height="58" viewBox="0 0 58 58">
  <g id="Stocks" transform="translate(-107 -192)">
    <g id="icon_mf" transform="translate(107 192)" opacity="0.08">
      <rect id="Rectangle_22896" data-name="Rectangle 22896" width="58" height="58" fill="none"/>
      <path id="Path_107576" data-name="Path 107576" d="M84.953,50.663l7.174-7.747a5.312,5.312,0,0,1,.993-4.126,4.431,4.431,0,0,1,7.147,0,5.312,5.312,0,0,1,.993,4.126l7.185,7.741a4.354,4.354,0,0,1,2.506,0l7.174-7.741a5.387,5.387,0,0,1-.084-.93,5.233,5.233,0,0,1,1.359-3.554,4.412,4.412,0,0,1,6.579-.006,5.311,5.311,0,0,1,0,7.1A4.482,4.482,0,0,1,122.692,47a4.3,4.3,0,0,1-1.622-.316l-6.9,7.449a5.346,5.346,0,0,1-.762,4.4,4.45,4.45,0,0,1-7.423,0,5.346,5.346,0,0,1-.762-4.4L98.332,46.68a4.317,4.317,0,0,1-3.261,0l-6.9,7.455a5.352,5.352,0,0,1-.645,4.2,4.594,4.594,0,0,1-3.4,2.152,4.453,4.453,0,0,1-3.709-1.448,5.253,5.253,0,0,1-1.341-4,5.1,5.1,0,0,1,1.993-3.675,4.364,4.364,0,0,1,3.89-.7ZM127.4,82.415H78.978a3.341,3.341,0,0,0-2.926,1.824,3.9,3.9,0,0,0,0,3.648,3.342,3.342,0,0,0,2.926,1.824H127.4a3.342,3.342,0,0,0,2.926-1.824,3.9,3.9,0,0,0,0-3.648A3.341,3.341,0,0,0,127.4,82.415ZM94.615,54.026a2.071,2.071,0,0,0-1.5.687,2.415,2.415,0,0,0-.62,1.63V78.682h8.447V56.342a2.414,2.414,0,0,0-.628-1.638,2.068,2.068,0,0,0-1.517-.679Zm29.389,0h-4.156a2.067,2.067,0,0,0-1.517.679,2.412,2.412,0,0,0-.628,1.638V78.682h8.447V56.342a2.415,2.415,0,0,0-.621-1.63,2.069,2.069,0,0,0-1.5-.687ZM111.254,64.666H107.1a2.069,2.069,0,0,0-1.525.681A2.415,2.415,0,0,0,104.948,67V78.682h8.446V67a2.417,2.417,0,0,0-.623-1.644A2.07,2.07,0,0,0,111.254,64.666Zm-29.389-.973h0a2.07,2.07,0,0,0-1.517.679,2.414,2.414,0,0,0-.628,1.638V78.681h8.446V66.01a2.414,2.414,0,0,0-.628-1.638,2.069,2.069,0,0,0-1.517-.679Z" transform="translate(-74.191 -34.335)" fill="#999"/>
    </g>
    <g id="icon_mf-2" data-name="icon_mf" transform="translate(133 218)">
      <rect id="Rectangle_22896-2" data-name="Rectangle 22896" width="32" height="32" fill="none"/>
      <path id="Path_107576-2" data-name="Path 107576" d="M79.8,42.855l3.219-3.333a2.215,2.215,0,0,1,.446-1.775,2.039,2.039,0,0,1,3.207,0,2.215,2.215,0,0,1,.446,1.775l3.224,3.331a2.034,2.034,0,0,1,1.124,0l3.219-3.331a2.225,2.225,0,0,1-.038-.4,2.2,2.2,0,0,1,.61-1.529,2.037,2.037,0,0,1,2.952,0,2.216,2.216,0,0,1,0,3.057,2.051,2.051,0,0,1-1.476.633A2,2,0,0,1,96,41.144l-3.1,3.205a2.223,2.223,0,0,1-.342,1.894,2.045,2.045,0,0,1-3.331,0,2.223,2.223,0,0,1-.342-1.894L85.8,41.141a2.014,2.014,0,0,1-1.463,0l-3.1,3.208a2.223,2.223,0,0,1-.29,1.808,2.072,2.072,0,0,1-1.527.926,2.044,2.044,0,0,1-1.664-.623,2.2,2.2,0,0,1-.6-1.723,2.174,2.174,0,0,1,.894-1.581,2.026,2.026,0,0,1,1.746-.3ZM98.845,56.518H77.115A1.507,1.507,0,0,0,75.8,57.3a1.618,1.618,0,0,0,0,1.57,1.507,1.507,0,0,0,1.313.785h21.73a1.507,1.507,0,0,0,1.313-.785,1.618,1.618,0,0,0,0-1.57A1.507,1.507,0,0,0,98.845,56.518ZM84.132,44.3a.947.947,0,0,0-.674.3,1.015,1.015,0,0,0-.278.7v9.613h3.79V45.3a1.015,1.015,0,0,0-.282-.7.946.946,0,0,0-.681-.292Zm13.187,0H95.454a.946.946,0,0,0-.681.292,1.014,1.014,0,0,0-.282.7v9.613h3.79V45.3A1.015,1.015,0,0,0,98,44.6a.946.946,0,0,0-.674-.3ZM91.6,48.881H89.734a.946.946,0,0,0-.684.293,1.015,1.015,0,0,0-.281.709v5.029h3.79V49.883a1.016,1.016,0,0,0-.279-.707A.947.947,0,0,0,91.6,48.881Zm-13.187-.419h0a.947.947,0,0,0-.681.292,1.015,1.015,0,0,0-.282.7v5.453h3.79V49.459a1.015,1.015,0,0,0-.282-.7.947.947,0,0,0-.681-.292Z" transform="translate(-71.98 -32.307)" fill="#999"/>
    </g>
  </g>
</svg>
